<?xml version="1.0" encoding="utf-8" standalone="no"?>
<!DOCTYPE svg PUBLIC "-//W3C//DTD SVG 1.1//EN"
  "http://www.w3.org/Graphics/SVG/1.1/DTD/svg11.dtd">
<svg xmlns:xlink="http://www.w3.org/1999/xlink" width="792pt" height="482.4pt" viewBox="0 0 792 482.4" xmlns="http://www.w3.org/2000/svg" version="1.1">
 <metadata>
  <rdf:RDF xmlns:dc="http://purl.org/dc/elements/1.1/" xmlns:cc="http://creativecommons.org/ns#" xmlns:rdf="http://www.w3.org/1999/02/22-rdf-syntax-ns#">
   <cc:Work>
    <dc:type rdf:resource="http://purl.org/dc/dcmitype/StillImage"/>
    <dc:date>2026-10-06T16:09:04.678264</dc:date>
    <dc:format>image/svg+xml</dc:format>
    <dc:creator>
     <cc:Agent>
      <dc:title>Matplotlib v3.11.2, https://matplotlib.org/</dc:title>
     </cc:Agent>
    </dc:creator>
   </cc:Work>
  </rdf:RDF>
 </metadata>
 <defs>
  <style type="text/css">*{stroke-linejoin: round; stroke-linecap: butt}</style>
 </defs>
 <g id="figure_1">
  <g id="patch_1">
   <path d="M 0 482.4
L 792 482.4
L 792 0
L 0 0
z
" style="fill: #ffffff"/>
  </g>
  <g id="axes_1">
   <g id="patch_2">
    <path d="M 67.32 257.252513
L 764.28 257.252513
L 764.28 86.832
L 67.32 86.832
z
" style="fill: #ffffff"/>
   </g>
   <g id="matplotlib.axis_1">
    <g id="xtick_1">
     <g id="line2d_1">
      <defs>
       <path id="m9e257a68a0" d="M 0 0
L 0 3.5
" style="stroke: #000000; stroke-width: 0.8"/>
      </defs>
      <g>
       <use xlink:href="#m9e257a68a0" x="78.075556" y="257.252513" style="stroke: #000000; stroke-width: 0.8"/>
      </g>
     </g>
    </g>
    <g id="xtick_2">
     <g id="line2d_2">
      <g>
       <use xlink:href="#m9e257a68a0" x="142.608889" y="257.252513" style="stroke: #000000; stroke-width: 0.8"/>
      </g>
     </g>
    </g>
    <g id="xtick_3">
     <g id="line2d_3">
      <g>
       <use xlink:href="#m9e257a68a0" x="228.653333" y="257.252513" style="stroke: #000000; stroke-width: 0.8"/>
      </g>
     </g>
    </g>
    <g id="xtick_4">
     <g id="line2d_4">
      <g>
       <use xlink:href="#m9e257a68a0" x="314.697778" y="257.252513" style="stroke: #000000; stroke-width: 0.8"/>
      </g>
     </g>
    </g>
    <g id="xtick_5">
     <g id="line2d_5">
      <g>
       <use xlink:href="#m9e257a68a0" x="400.742222" y="257.252513" style="stroke: #000000; stroke-width: 0.8"/>
      </g>
     </g>
    </g>
    <g id="xtick_6">
     <g id="line2d_6">
      <g>
       <use xlink:href="#m9e257a68a0" x="486.786667" y="257.252513" style="stroke: #000000; stroke-width: 0.8"/>
      </g>
     </g>
    </g>
    <g id="xtick_7">
     <g id="line2d_7">
      <g>
       <use xlink:href="#m9e257a68a0" x="572.831111" y="257.252513" style="stroke: #000000; stroke-width: 0.8"/>
      </g>
     </g>
    </g>
    <g id="xtick_8">
     <g id="line2d_8">
      <g>
       <use xlink:href="#m9e257a68a0" x="658.875556" y="257.252513" style="stroke: #000000; stroke-width: 0.8"/>
      </g>
     </g>
    </g>
    <g id="xtick_9">
     <g id="line2d_9">
      <g>
       <use xlink:href="#m9e257a68a0" x="744.92" y="257.252513" style="stroke: #000000; stroke-width: 0.8"/>
      </g>
     </g>
    </g>
   </g>
   <g id="matplotlib.axis_2">
    <g id="ytick_1">
     <g id="line2d_10">
      <path d="M 67.32 250.940642
L 764.28 250.940642
" clip-path="url(#p17d7aec9fc)" style="fill: none; stroke: #e4e7eb; stroke-width: 0.7; stroke-linecap: square"/>
     </g>
     <g id="line2d_11">
      <defs>
       <path id="m89d4b0fef3" d="M 0 0
L -3.5 0
" style="stroke: #000000; stroke-width: 0.8"/>
      </defs>
      <g>
       <use xlink:href="#m89d4b0fef3" x="67.32" y="250.940642" style="stroke: #000000; stroke-width: 0.8"/>
      </g>
     </g>
     <g id="text_1">
      <text style="font-size: 10px; font-family: 'DejaVu Sans'; text-anchor: end" x="60.32" y="254.73947" transform="rotate(-0 60.32 254.73947)">0</text>
     </g>
    </g>
    <g id="ytick_2">
     <g id="line2d_12">
      <path d="M 67.32 219.381288
L 764.28 219.381288
" clip-path="url(#p17d7aec9fc)" style="fill: none; stroke: #e4e7eb; stroke-width: 0.7; stroke-linecap: square"/>
     </g>
     <g id="line2d_13">
      <g>
       <use xlink:href="#m89d4b0fef3" x="67.32" y="219.381288" style="stroke: #000000; stroke-width: 0.8"/>
      </g>
     </g>
     <g id="text_2">
      <text style="font-size: 10px; font-family: 'DejaVu Sans'; text-anchor: end" x="60.32" y="223.180116" transform="rotate(-0 60.32 223.180116)">10</text>
     </g>
    </g>
    <g id="ytick_3">
     <g id="line2d_14">
      <path d="M 67.32 187.821934
L 764.28 187.821934
" clip-path="url(#p17d7aec9fc)" style="fill: none; stroke: #e4e7eb; stroke-width: 0.7; stroke-linecap: square"/>
     </g>
     <g id="line2d_15">
      <g>
       <use xlink:href="#m89d4b0fef3" x="67.32" y="187.821934" style="stroke: #000000; stroke-width: 0.8"/>
      </g>
     </g>
     <g id="text_3">
      <text style="font-size: 10px; font-family: 'DejaVu Sans'; text-anchor: end" x="60.32" y="191.620762" transform="rotate(-0 60.32 191.620762)">20</text>
     </g>
    </g>
    <g id="ytick_4">
     <g id="line2d_16">
      <path d="M 67.32 156.262579
L 764.28 156.262579
" clip-path="url(#p17d7aec9fc)" style="fill: none; stroke: #e4e7eb; stroke-width: 0.7; stroke-linecap: square"/>
     </g>
     <g id="line2d_17">
      <g>
       <use xlink:href="#m89d4b0fef3" x="67.32" y="156.262579" style="stroke: #000000; stroke-width: 0.8"/>
      </g>
     </g>
     <g id="text_4">
      <text style="font-size: 10px; font-family: 'DejaVu Sans'; text-anchor: end" x="60.32" y="160.061407" transform="rotate(-0 60.32 160.061407)">30</text>
     </g>
    </g>
    <g id="ytick_5">
     <g id="line2d_18">
      <path d="M 67.32 124.703225
L 764.28 124.703225
" clip-path="url(#p17d7aec9fc)" style="fill: none; stroke: #e4e7eb; stroke-width: 0.7; stroke-linecap: square"/>
     </g>
     <g id="line2d_19">
      <g>
       <use xlink:href="#m89d4b0fef3" x="67.32" y="124.703225" style="stroke: #000000; stroke-width: 0.8"/>
      </g>
     </g>
     <g id="text_5">
      <text style="font-size: 10px; font-family: 'DejaVu Sans'; text-anchor: end" x="60.32" y="128.502053" transform="rotate(-0 60.32 128.502053)">40</text>
     </g>
    </g>
    <g id="text_6">
     <text style="font-size: 10px; font-family: 'DejaVu Sans'; text-anchor: middle" x="41.192656" y="172.042256" transform="rotate(-90 41.192656 172.042256)">Observed game score (max 350)</text>
    </g>
   </g>
   <g id="patch_3">
    <path d="M 563.151111 257.252513
L 582.511111 257.252513
L 582.511111 86.832
L 563.151111 86.832
z
" clip-path="url(#p17d7aec9fc)" style="fill: #c95d20; opacity: 0.12; stroke: #c95d20; stroke-linejoin: miter"/>
   </g>
   <g id="patch_4">
    <path d="M 584.662222 257.252513
L 604.022222 257.252513
L 604.022222 86.832
L 584.662222 86.832
z
" clip-path="url(#p17d7aec9fc)" style="fill: #167b78; opacity: 0.12; stroke: #167b78; stroke-linejoin: miter"/>
   </g>
   <g id="line2d_20">
    <path d="M 78.075556 250.940642
L 99.586667 250.940642
L 99.586667 250.940642
L 121.097778 250.940642
L 121.097778 250.940642
L 142.608889 250.940642
L 142.608889 250.940642
L 164.12 250.940642
L 164.12 250.940642
L 185.631111 250.940642
L 185.631111 250.940642
L 207.142222 250.940642
L 207.142222 250.940642
L 228.653333 250.940642
L 228.653333 250.940642
L 250.164444 250.940642
L 250.164444 250.940642
L 271.675556 250.940642
L 271.675556 250.940642
L 293.186667 250.940642
L 293.186667 235.160965
L 314.697778 235.160965
L 314.697778 235.160965
L 336.208889 235.160965
L 336.208889 235.160965
L 357.72 235.160965
L 357.72 235.160965
L 379.231111 235.160965
L 379.231111 235.160965
L 400.742222 235.160965
L 400.742222 235.160965
L 422.253333 235.160965
L 422.253333 235.160965
L 443.764444 235.160965
L 443.764444 203.601611
L 465.275556 203.601611
L 465.275556 203.601611
L 486.786667 203.601611
L 486.786667 203.601611
L 508.297778 203.601611
L 508.297778 203.601611
L 529.808889 203.601611
L 529.808889 203.601611
L 551.32 203.601611
L 551.32 203.601611
L 594.342222 203.601611
L 594.342222 203.601611
L 615.853333 203.601611
L 615.853333 203.601611
L 637.364444 203.601611
L 637.364444 203.601611
L 658.875556 203.601611
L 658.875556 203.601611
L 680.386667 203.601611
L 680.386667 203.601611
L 701.897778 203.601611
L 701.897778 203.601611
L 723.408889 203.601611
L 723.408889 124.703225
L 744.92 124.703225
L 744.92 124.703225
" clip-path="url(#p17d7aec9fc)" style="fill: none; stroke: #245da8; stroke-width: 2; stroke-linecap: square"/>
   </g>
   <g id="patch_5">
    <path d="M 67.32 257.252513
L 67.32 86.832
" style="fill: none; stroke: #000000; stroke-width: 0.8; stroke-linejoin: miter; stroke-linecap: square"/>
   </g>
   <g id="patch_6">
    <path d="M 67.32 257.252513
L 764.28 257.252513
" style="fill: none; stroke: #000000; stroke-width: 0.8; stroke-linejoin: miter; stroke-linecap: square"/>
   </g>
   <g id="PathCollection_1">
    <defs>
     <path id="md2a8761a6a" d="M 0 1.870829
C 0.49615 1.870829 0.972045 1.673706 1.322876 1.322876
C 1.673706 0.972045 1.870829 0.49615 1.870829 0
C 1.870829 -0.49615 1.673706 -0.972045 1.322876 -1.322876
C 0.972045 -1.673706 0.49615 -1.870829 0 -1.870829
C -0.49615 -1.870829 -0.972045 -1.673706 -1.322876 -1.322876
C -1.673706 -0.972045 -1.870829 -0.49615 -1.870829 0
C -1.870829 0.49615 -1.673706 0.972045 -1.322876 1.322876
C -0.972045 1.673706 -0.49615 1.870829 0 1.870829
z
" style="stroke: #245da8"/>
    </defs>
    <g clip-path="url(#p17d7aec9fc)">
     <use xlink:href="#md2a8761a6a" x="78.075556" y="250.940642" style="fill: #245da8; stroke: #245da8"/>
     <use xlink:href="#md2a8761a6a" x="99.586667" y="250.940642" style="fill: #245da8; stroke: #245da8"/>
     <use xlink:href="#md2a8761a6a" x="121.097778" y="250.940642" style="fill: #245da8; stroke: #245da8"/>
     <use xlink:href="#md2a8761a6a" x="142.608889" y="250.940642" style="fill: #245da8; stroke: #245da8"/>
     <use xlink:href="#md2a8761a6a" x="164.12" y="250.940642" style="fill: #245da8; stroke: #245da8"/>
     <use xlink:href="#md2a8761a6a" x="185.631111" y="250.940642" style="fill: #245da8; stroke: #245da8"/>
     <use xlink:href="#md2a8761a6a" x="207.142222" y="250.940642" style="fill: #245da8; stroke: #245da8"/>
     <use xlink:href="#md2a8761a6a" x="228.653333" y="250.940642" style="fill: #245da8; stroke: #245da8"/>
     <use xlink:href="#md2a8761a6a" x="250.164444" y="250.940642" style="fill: #245da8; stroke: #245da8"/>
     <use xlink:href="#md2a8761a6a" x="271.675556" y="250.940642" style="fill: #245da8; stroke: #245da8"/>
     <use xlink:href="#md2a8761a6a" x="293.186667" y="235.160965" style="fill: #245da8; stroke: #245da8"/>
     <use xlink:href="#md2a8761a6a" x="314.697778" y="235.160965" style="fill: #245da8; stroke: #245da8"/>
     <use xlink:href="#md2a8761a6a" x="336.208889" y="235.160965" style="fill: #245da8; stroke: #245da8"/>
     <use xlink:href="#md2a8761a6a" x="357.72" y="235.160965" style="fill: #245da8; stroke: #245da8"/>
     <use xlink:href="#md2a8761a6a" x="379.231111" y="235.160965" style="fill: #245da8; stroke: #245da8"/>
     <use xlink:href="#md2a8761a6a" x="400.742222" y="235.160965" style="fill: #245da8; stroke: #245da8"/>
     <use xlink:href="#md2a8761a6a" x="422.253333" y="235.160965" style="fill: #245da8; stroke: #245da8"/>
     <use xlink:href="#md2a8761a6a" x="443.764444" y="203.601611" style="fill: #245da8; stroke: #245da8"/>
     <use xlink:href="#md2a8761a6a" x="465.275556" y="203.601611" style="fill: #245da8; stroke: #245da8"/>
     <use xlink:href="#md2a8761a6a" x="486.786667" y="203.601611" style="fill: #245da8; stroke: #245da8"/>
     <use xlink:href="#md2a8761a6a" x="508.297778" y="203.601611" style="fill: #245da8; stroke: #245da8"/>
     <use xlink:href="#md2a8761a6a" x="529.808889" y="203.601611" style="fill: #245da8; stroke: #245da8"/>
     <use xlink:href="#md2a8761a6a" x="551.32" y="203.601611" style="fill: #245da8; stroke: #245da8"/>
     <use xlink:href="#md2a8761a6a" x="594.342222" y="203.601611" style="fill: #245da8; stroke: #245da8"/>
     <use xlink:href="#md2a8761a6a" x="615.853333" y="203.601611" style="fill: #245da8; stroke: #245da8"/>
     <use xlink:href="#md2a8761a6a" x="637.364444" y="203.601611" style="fill: #245da8; stroke: #245da8"/>
     <use xlink:href="#md2a8761a6a" x="658.875556" y="203.601611" style="fill: #245da8; stroke: #245da8"/>
     <use xlink:href="#md2a8761a6a" x="680.386667" y="203.601611" style="fill: #245da8; stroke: #245da8"/>
     <use xlink:href="#md2a8761a6a" x="701.897778" y="203.601611" style="fill: #245da8; stroke: #245da8"/>
     <use xlink:href="#md2a8761a6a" x="723.408889" y="124.703225" style="fill: #245da8; stroke: #245da8"/>
     <use xlink:href="#md2a8761a6a" x="744.92" y="124.703225" style="fill: #245da8; stroke: #245da8"/>
    </g>
   </g>
   <g id="text_7">
    <text style="font-size: 9px; font-family: 'DejaVu Sans'; text-anchor: middle; fill: #245da8" x="291.186667" y="227.160965" transform="rotate(-0 291.186667 227.160965)">+5</text>
   </g>
   <g id="text_8">
    <text style="font-size: 9px; font-family: 'DejaVu Sans'; text-anchor: middle; fill: #245da8" x="441.764444" y="195.601611" transform="rotate(-0 441.764444 195.601611)">+10</text>
   </g>
   <g id="text_9">
    <text style="font-size: 9px; font-family: 'DejaVu Sans'; text-anchor: middle; fill: #245da8" x="721.408889" y="116.703225" transform="rotate(-0 721.408889 116.703225)">+25</text>
   </g>
   <g id="patch_7">
    <path d="M 393.667389 117.086219
Q 482.342988 158.344291 571.018587 199.602363
" style="fill: none; stroke: #c95d20; stroke-linecap: round"/>
   </g>
   <g id="text_10">
    <text style="font-size: 9px; font-family: 'DejaVu Sans'; text-anchor: start; fill: #c95d20" x="323.302222" y="112.079483" transform="rotate(-0 323.302222 112.079483)">24: invalid JSON; no tool</text>
   </g>
   <g id="patch_8">
    <path d="M 537.053714 159.391333
Q 564.905985 180.885288 592.758257 202.379244
" style="fill: none; stroke: #167b78; stroke-linecap: round"/>
   </g>
   <g id="text_11">
    <text style="font-size: 9px; font-family: 'DejaVu Sans'; fill: #167b78" transform="translate(443.764444 142.304886)">25: valid call after error feedback</text>
    <text style="font-size: 9px; font-family: 'DejaVu Sans'; fill: #167b78" transform="translate(443.764444 153.106644)">Score stays at 15</text>
   </g>
  </g>
  <g id="axes_2">
   <g id="patch_9">
    <path d="M 67.32 385.92
L 764.28 385.92
L 764.28 279.407179
L 67.32 279.407179
z
" style="fill: #ffffff"/>
   </g>
   <g id="matplotlib.axis_3">
    <g id="xtick_10">
     <g id="line2d_21">
      <g>
       <use xlink:href="#m9e257a68a0" x="78.075556" y="385.92" style="stroke: #000000; stroke-width: 0.8"/>
      </g>
     </g>
     <g id="text_12">
      <text style="font-size: 10px; font-family: 'DejaVu Sans'; text-anchor: middle" x="78.075556" y="400.517656" transform="rotate(-0 78.075556 400.517656)">1</text>
     </g>
    </g>
    <g id="xtick_11">
     <g id="line2d_22">
      <g>
       <use xlink:href="#m9e257a68a0" x="142.608889" y="385.92" style="stroke: #000000; stroke-width: 0.8"/>
      </g>
     </g>
     <g id="text_13">
      <text style="font-size: 10px; font-family: 'DejaVu Sans'; text-anchor: middle" x="142.608889" y="400.517656" transform="rotate(-0 142.608889 400.517656)">4</text>
     </g>
    </g>
    <g id="xtick_12">
     <g id="line2d_23">
      <g>
       <use xlink:href="#m9e257a68a0" x="228.653333" y="385.92" style="stroke: #000000; stroke-width: 0.8"/>
      </g>
     </g>
     <g id="text_14">
      <text style="font-size: 10px; font-family: 'DejaVu Sans'; text-anchor: middle" x="228.653333" y="400.517656" transform="rotate(-0 228.653333 400.517656)">8</text>
     </g>
    </g>
    <g id="xtick_13">
     <g id="line2d_24">
      <g>
       <use xlink:href="#m9e257a68a0" x="314.697778" y="385.92" style="stroke: #000000; stroke-width: 0.8"/>
      </g>
     </g>
     <g id="text_15">
      <text style="font-size: 10px; font-family: 'DejaVu Sans'; text-anchor: middle" x="314.697778" y="400.517656" transform="rotate(-0 314.697778 400.517656)">12</text>
     </g>
    </g>
    <g id="xtick_14">
     <g id="line2d_25">
      <g>
       <use xlink:href="#m9e257a68a0" x="400.742222" y="385.92" style="stroke: #000000; stroke-width: 0.8"/>
      </g>
     </g>
     <g id="text_16">
      <text style="font-size: 10px; font-family: 'DejaVu Sans'; text-anchor: middle" x="400.742222" y="400.517656" transform="rotate(-0 400.742222 400.517656)">16</text>
     </g>
    </g>
    <g id="xtick_15">
     <g id="line2d_26">
      <g>
       <use xlink:href="#m9e257a68a0" x="486.786667" y="385.92" style="stroke: #000000; stroke-width: 0.8"/>
      </g>
     </g>
     <g id="text_17">
      <text style="font-size: 10px; font-family: 'DejaVu Sans'; text-anchor: middle" x="486.786667" y="400.517656" transform="rotate(-0 486.786667 400.517656)">20</text>
     </g>
    </g>
    <g id="xtick_16">
     <g id="line2d_27">
      <g>
       <use xlink:href="#m9e257a68a0" x="572.831111" y="385.92" style="stroke: #000000; stroke-width: 0.8"/>
      </g>
     </g>
     <g id="text_18">
      <text style="font-size: 10px; font-family: 'DejaVu Sans'; text-anchor: middle" x="572.831111" y="400.517656" transform="rotate(-0 572.831111 400.517656)">24</text>
     </g>
    </g>
    <g id="xtick_17">
     <g id="line2d_28">
      <g>
       <use xlink:href="#m9e257a68a0" x="658.875556" y="385.92" style="stroke: #000000; stroke-width: 0.8"/>
      </g>
     </g>
     <g id="text_19">
      <text style="font-size: 10px; font-family: 'DejaVu Sans'; text-anchor: middle" x="658.875556" y="400.517656" transform="rotate(-0 658.875556 400.517656)">28</text>
     </g>
    </g>
    <g id="xtick_18">
     <g id="line2d_29">
      <g>
       <use xlink:href="#m9e257a68a0" x="744.92" y="385.92" style="stroke: #000000; stroke-width: 0.8"/>
      </g>
     </g>
     <g id="text_20">
      <text style="font-size: 10px; font-family: 'DejaVu Sans'; text-anchor: middle" x="744.92" y="400.517656" transform="rotate(-0 744.92 400.517656)">32</text>
     </g>
    </g>
    <g id="text_21">
     <text style="font-size: 10px; font-family: 'DejaVu Sans'; text-anchor: middle" x="415.8" y="414.518438" transform="rotate(-0 415.8 414.518438)">Response index (1-based; not elapsed time)</text>
    </g>
   </g>
   <g id="matplotlib.axis_4">
    <g id="ytick_6">
     <g id="line2d_30">
      <path d="M 67.32 385.92
L 764.28 385.92
" clip-path="url(#pfa91767fb1)" style="fill: none; stroke: #e4e7eb; stroke-width: 0.7; stroke-linecap: square"/>
     </g>
     <g id="line2d_31">
      <g>
       <use xlink:href="#m89d4b0fef3" x="67.32" y="385.92" style="stroke: #000000; stroke-width: 0.8"/>
      </g>
     </g>
     <g id="text_22">
      <text style="font-size: 10px; font-family: 'DejaVu Sans'; text-anchor: end" x="60.32" y="389.718828" transform="rotate(-0 60.32 389.718828)">0.0</text>
     </g>
    </g>
    <g id="ytick_7">
     <g id="line2d_32">
      <path d="M 67.32 356.778738
L 764.28 356.778738
" clip-path="url(#pfa91767fb1)" style="fill: none; stroke: #e4e7eb; stroke-width: 0.7; stroke-linecap: square"/>
     </g>
     <g id="line2d_33">
      <g>
       <use xlink:href="#m89d4b0fef3" x="67.32" y="356.778738" style="stroke: #000000; stroke-width: 0.8"/>
      </g>
     </g>
     <g id="text_23">
      <text style="font-size: 10px; font-family: 'DejaVu Sans'; text-anchor: end" x="60.32" y="360.577566" transform="rotate(-0 60.32 360.577566)">0.5</text>
     </g>
    </g>
    <g id="ytick_8">
     <g id="line2d_34">
      <path d="M 67.32 327.637476
L 764.28 327.637476
" clip-path="url(#pfa91767fb1)" style="fill: none; stroke: #e4e7eb; stroke-width: 0.7; stroke-linecap: square"/>
     </g>
     <g id="line2d_35">
      <g>
       <use xlink:href="#m89d4b0fef3" x="67.32" y="327.637476" style="stroke: #000000; stroke-width: 0.8"/>
      </g>
     </g>
     <g id="text_24">
      <text style="font-size: 10px; font-family: 'DejaVu Sans'; text-anchor: end" x="60.32" y="331.436304" transform="rotate(-0 60.32 331.436304)">1.0</text>
     </g>
    </g>
    <g id="ytick_9">
     <g id="line2d_36">
      <path d="M 67.32 298.496215
L 764.28 298.496215
" clip-path="url(#pfa91767fb1)" style="fill: none; stroke: #e4e7eb; stroke-width: 0.7; stroke-linecap: square"/>
     </g>
     <g id="line2d_37">
      <g>
       <use xlink:href="#m89d4b0fef3" x="67.32" y="298.496215" style="stroke: #000000; stroke-width: 0.8"/>
      </g>
     </g>
     <g id="text_25">
      <text style="font-size: 10px; font-family: 'DejaVu Sans'; text-anchor: end" x="60.32" y="302.295043" transform="rotate(-0 60.32 302.295043)">1.5</text>
     </g>
    </g>
    <g id="text_26">
     <text style="font-size: 10px; font-family: 'DejaVu Sans'; text-anchor: middle" x="38.014531" y="332.66359" transform="rotate(-90 38.014531 332.66359)">HTTP request duration (s)</text>
    </g>
   </g>
   <g id="patch_10">
    <path d="M 563.151111 385.92
L 582.511111 385.92
L 582.511111 279.407179
L 563.151111 279.407179
z
" clip-path="url(#pfa91767fb1)" style="fill: #c95d20; opacity: 0.12; stroke: #c95d20; stroke-linejoin: miter"/>
   </g>
   <g id="patch_11">
    <path d="M 584.662222 385.92
L 604.022222 385.92
L 604.022222 279.407179
L 584.662222 279.407179
z
" clip-path="url(#pfa91767fb1)" style="fill: #167b78; opacity: 0.12; stroke: #167b78; stroke-linejoin: miter"/>
   </g>
   <g id="patch_12">
    <path d="M 70.761778 385.92
L 85.389333 385.92
L 85.389333 310.995589
L 70.761778 310.995589
z
" clip-path="url(#pfa91767fb1)" style="fill: #245da8; opacity: 0.85"/>
   </g>
   <g id="patch_13">
    <path d="M 92.272889 385.92
L 106.900444 385.92
L 106.900444 334.716754
L 92.272889 334.716754
z
" clip-path="url(#pfa91767fb1)" style="fill: #245da8; opacity: 0.85"/>
   </g>
   <g id="patch_14">
    <path d="M 113.784 385.92
L 128.411556 385.92
L 128.411556 321.239042
L 113.784 321.239042
z
" clip-path="url(#pfa91767fb1)" style="fill: #245da8; opacity: 0.85"/>
   </g>
   <g id="patch_15">
    <path d="M 135.295111 385.92
L 149.922667 385.92
L 149.922667 291.640637
L 135.295111 291.640637
z
" clip-path="url(#pfa91767fb1)" style="fill: #245da8; opacity: 0.85"/>
   </g>
   <g id="patch_16">
    <path d="M 156.806222 385.92
L 171.433778 385.92
L 171.433778 317.318906
L 156.806222 317.318906
z
" clip-path="url(#pfa91767fb1)" style="fill: #245da8; opacity: 0.85"/>
   </g>
   <g id="patch_17">
    <path d="M 178.317333 385.92
L 192.944889 385.92
L 192.944889 305.40622
L 178.317333 305.40622
z
" clip-path="url(#pfa91767fb1)" style="fill: #245da8; opacity: 0.85"/>
   </g>
   <g id="patch_18">
    <path d="M 199.828444 385.92
L 214.456 385.92
L 214.456 344.293519
L 199.828444 344.293519
z
" clip-path="url(#pfa91767fb1)" style="fill: #245da8; opacity: 0.85"/>
   </g>
   <g id="patch_19">
    <path d="M 221.339556 385.92
L 235.967111 385.92
L 235.967111 308.525524
L 221.339556 308.525524
z
" clip-path="url(#pfa91767fb1)" style="fill: #245da8; opacity: 0.85"/>
   </g>
   <g id="patch_20">
    <path d="M 242.850667 385.92
L 257.478222 385.92
L 257.478222 316.0576
L 242.850667 316.0576
z
" clip-path="url(#pfa91767fb1)" style="fill: #245da8; opacity: 0.85"/>
   </g>
   <g id="patch_21">
    <path d="M 264.361778 385.92
L 278.989333 385.92
L 278.989333 318.600152
L 264.361778 318.600152
z
" clip-path="url(#pfa91767fb1)" style="fill: #245da8; opacity: 0.85"/>
   </g>
   <g id="patch_22">
    <path d="M 285.872889 385.92
L 300.500444 385.92
L 300.500444 308.494891
L 285.872889 308.494891
z
" clip-path="url(#pfa91767fb1)" style="fill: #245da8; opacity: 0.85"/>
   </g>
   <g id="patch_23">
    <path d="M 307.384 385.92
L 322.011556 385.92
L 322.011556 287.660522
L 307.384 287.660522
z
" clip-path="url(#pfa91767fb1)" style="fill: #245da8; opacity: 0.85"/>
   </g>
   <g id="patch_24">
    <path d="M 328.895111 385.92
L 343.522667 385.92
L 343.522667 306.069925
L 328.895111 306.069925
z
" clip-path="url(#pfa91767fb1)" style="fill: #245da8; opacity: 0.85"/>
   </g>
   <g id="patch_25">
    <path d="M 350.406222 385.92
L 365.033778 385.92
L 365.033778 294.302703
L 350.406222 294.302703
z
" clip-path="url(#pfa91767fb1)" style="fill: #245da8; opacity: 0.85"/>
   </g>
   <g id="patch_26">
    <path d="M 371.917333 385.92
L 386.544889 385.92
L 386.544889 312.200957
L 371.917333 312.200957
z
" clip-path="url(#pfa91767fb1)" style="fill: #245da8; opacity: 0.85"/>
   </g>
   <g id="patch_27">
    <path d="M 393.428444 385.92
L 408.056 385.92
L 408.056 301.314695
L 393.428444 301.314695
z
" clip-path="url(#pfa91767fb1)" style="fill: #245da8; opacity: 0.85"/>
   </g>
   <g id="patch_28">
    <path d="M 414.939556 385.92
L 429.567111 385.92
L 429.567111 320.194487
L 414.939556 320.194487
z
" clip-path="url(#pfa91767fb1)" style="fill: #245da8; opacity: 0.85"/>
   </g>
   <g id="patch_29">
    <path d="M 436.450667 385.92
L 451.078222 385.92
L 451.078222 309.417471
L 436.450667 309.417471
z
" clip-path="url(#pfa91767fb1)" style="fill: #245da8; opacity: 0.85"/>
   </g>
   <g id="patch_30">
    <path d="M 457.961778 385.92
L 472.589333 385.92
L 472.589333 319.045456
L 457.961778 319.045456
z
" clip-path="url(#pfa91767fb1)" style="fill: #245da8; opacity: 0.85"/>
   </g>
   <g id="patch_31">
    <path d="M 479.472889 385.92
L 494.100444 385.92
L 494.100444 316.150859
L 479.472889 316.150859
z
" clip-path="url(#pfa91767fb1)" style="fill: #245da8; opacity: 0.85"/>
   </g>
   <g id="patch_32">
    <path d="M 500.984 385.92
L 515.611556 385.92
L 515.611556 305.410679
L 500.984 305.410679
z
" clip-path="url(#pfa91767fb1)" style="fill: #245da8; opacity: 0.85"/>
   </g>
   <g id="patch_33">
    <path d="M 522.495111 385.92
L 537.122667 385.92
L 537.122667 315.710507
L 522.495111 315.710507
z
" clip-path="url(#pfa91767fb1)" style="fill: #245da8; opacity: 0.85"/>
   </g>
   <g id="patch_34">
    <path d="M 544.006222 385.92
L 558.633778 385.92
L 558.633778 312.766459
L 544.006222 312.766459
z
" clip-path="url(#pfa91767fb1)" style="fill: #245da8; opacity: 0.85"/>
   </g>
   <g id="patch_35">
    <path d="M 565.517333 385.92
L 580.144889 385.92
L 580.144889 312.200025
L 565.517333 312.200025
z
" clip-path="url(#pfa91767fb1)" style="fill: #c95d20; opacity: 0.85"/>
   </g>
   <g id="patch_36">
    <path d="M 587.028444 385.92
L 601.656 385.92
L 601.656 323.258163
L 587.028444 323.258163
z
" clip-path="url(#pfa91767fb1)" style="fill: #167b78; opacity: 0.85"/>
   </g>
   <g id="patch_37">
    <path d="M 608.539556 385.92
L 623.167111 385.92
L 623.167111 315.73006
L 608.539556 315.73006
z
" clip-path="url(#pfa91767fb1)" style="fill: #245da8; opacity: 0.85"/>
   </g>
   <g id="patch_38">
    <path d="M 630.050667 385.92
L 644.678222 385.92
L 644.678222 312.576212
L 630.050667 312.576212
z
" clip-path="url(#pfa91767fb1)" style="fill: #245da8; opacity: 0.85"/>
   </g>
   <g id="patch_39">
    <path d="M 651.561778 385.92
L 666.189333 385.92
L 666.189333 284.479219
L 651.561778 284.479219
z
" clip-path="url(#pfa91767fb1)" style="fill: #245da8; opacity: 0.85"/>
   </g>
   <g id="patch_40">
    <path d="M 673.072889 385.92
L 687.700444 385.92
L 687.700444 311.302791
L 673.072889 311.302791
z
" clip-path="url(#pfa91767fb1)" style="fill: #245da8; opacity: 0.85"/>
   </g>
   <g id="patch_41">
    <path d="M 694.584 385.92
L 709.211556 385.92
L 709.211556 312.542966
L 694.584 312.542966
z
" clip-path="url(#pfa91767fb1)" style="fill: #245da8; opacity: 0.85"/>
   </g>
   <g id="patch_42">
    <path d="M 716.095111 385.92
L 730.722667 385.92
L 730.722667 311.482175
L 716.095111 311.482175
z
" clip-path="url(#pfa91767fb1)" style="fill: #245da8; opacity: 0.85"/>
   </g>
   <g id="patch_43">
    <path d="M 737.606222 385.92
L 752.233778 385.92
L 752.233778 325.331378
L 737.606222 325.331378
z
" clip-path="url(#pfa91767fb1)" style="fill: #245da8; opacity: 0.85"/>
   </g>
   <g id="patch_44">
    <path d="M 67.32 385.92
L 67.32 279.407179
" style="fill: none; stroke: #000000; stroke-width: 0.8; stroke-linejoin: miter; stroke-linecap: square"/>
   </g>
   <g id="patch_45">
    <path d="M 67.32 385.92
L 764.28 385.92
" style="fill: none; stroke: #000000; stroke-width: 0.8; stroke-linejoin: miter; stroke-linecap: square"/>
   </g>
  </g>
  <g id="text_27">
   <text style="font-weight: 700; font-size: 16px; font-family: 'DejaVu Sans'; text-anchor: start" x="67.32" y="31.4535" transform="rotate(-0 67.32 31.4535)">A tool call recovered; its immediate score did not improve</text>
  </g>
  <g id="text_28">
   <text style="font-size: 10px; font-family: 'DejaVu Sans'; text-anchor: start; fill: #4b5563" x="67.32" y="47.2752" transform="rotate(-0 67.32 47.2752)">One Zork1 run | DeepSeek-V4-Pro | single-json-v2 | 31 tool executions / 32 responses</text>
  </g>
  <g id="text_29">
   <text style="font-size: 9px; font-family: 'DejaVu Sans'; fill: #4b5563" transform="translate(67.32 451.116)">Descriptive trace only. This run failed the predeclared calibration gate.</text>
   <text style="font-size: 9px; font-family: 'DejaVu Sans'; fill: #4b5563" transform="translate(67.32 465.516)">No model ranking, prompt effect, or causal benefit of feedback is identified.</text>
  </g>
 </g>
 <defs>
  <clipPath id="p17d7aec9fc">
   <rect x="67.32" y="86.832" width="696.96" height="170.420513"/>
  </clipPath>
  <clipPath id="pfa91767fb1">
   <rect x="67.32" y="279.407179" width="696.96" height="106.512821"/>
  </clipPath>
 </defs>
</svg>
